<?xml version="1.0" encoding="UTF-8" standalone="no"?>
<!DOCTYPE svg  PUBLIC '-//W3C//DTD SVG 1.1//EN'  'http://www.w3.org/Graphics/SVG/1.1/DTD/svg11.dtd'>
<svg xmlns="http://www.w3.org/2000/svg" version="1.1">
<defs>
<font id="EurostileT-ReguExte" horiz-adv-x="1024">
<font-face descent="-467" panose-1="2 11 5 7 2 2 2 6 2 4" ascent="1581" unicode-range="U+0020-EA6A" units-per-em="2048" font-family="EurostileTRegExt" underline-position="-403" cap-height="1365" font-weight="400" bbox="-274 -468 2819 1781" underline-thickness="135" x-height="969"/>
<missing-glyph/>
<glyph horiz-adv-x="512" unicode=" " glyph-name="space"/>
<glyph horiz-adv-x="590" d="M222 404l-9 961h167l-10 -961h-148zM191 0v229h208v-229h-208z" unicode="!" glyph-name="exclam"/>
<glyph horiz-adv-x="689" d="M240 818h-116l-22 547h160zM565 818h-116l-22 547h160z" unicode='&quot;' glyph-name="quotedbl"/>
<glyph horiz-adv-x="1857" d="M732 1000h496l58 367h131l-58 -367h298l-19 -124h-299l-59 -370h299l-21 -132h-299l-59 -374h-131l60 374h-496l-60 -374h-126l59 374h-307l21 132h307l59 370h-307l19 124h307l58 367h127zM654 506h496l58 370h-496z" unicode="#" glyph-name="numbersign"/>
<glyph horiz-adv-x="1857" d="M979 1226v-459l198 -4q218 -5 284 -18q266 -53 266 -346q0 -232 -136 -321q-75 -48 -203 -66q-89 -12 -235 -12h-174v-137h-130v137h-193q-195 0 -289 27q-149 43 -200 148q-36 74 -36 204q0 18 1 55h171v-34q0 -113 24 -158q37 -65 148 -88q59 -14 245 -15h129v487 l-168 3q-204 5 -262 15q-151 24 -215 116q-60 84 -60 240q0 169 75 255q67 77 182 95q90 15 285 15h163v151h130v-151h193q252 1 337 -33q150 -62 176 -220q6 -40 6 -134h-164q0 76 -4 103q-13 101 -113 131q-68 15 -241 14h-190zM849 1226h-155q-154 0 -217 -13 q-93 -19 -130 -70q-36 -48 -36 -143q0 -138 72 -187q41 -28 146 -35q14 -1 152 -5l168 -4v457zM979 139h218q211 0 300 72q63 52 63 178q0 149 -84 191q-54 27 -160 35q-22 2 -139 4l-198 5v-485z" unicode="$" glyph-name="dollar"/>
<glyph horiz-adv-x="2944" d="M767 -10l1199 1385h203l-1199 -1385h-203zM691 1418q212 0 308 -26q134 -35 194 -152q44 -85 44 -303q0 -217 -44 -302q-60 -117 -194 -152q-96 -26 -312 -26t-313 26q-133 35 -193 152q-44 85 -44 302q0 218 44 303q60 117 193 153q97 25 317 25zM684 1289 q-179 0 -243 -20q-97 -30 -130 -121q-23 -65 -23 -210q0 -156 28 -223q38 -90 142 -114q66 -15 229 -15q182 0 246 20q97 30 130 121q23 65 23 211q0 155 -28 222q-38 90 -142 114q-66 15 -232 15zM2261 926q213 0 309 -26q134 -35 194 -152q44 -85 44 -302q0 -218 -44 -303 q-60 -117 -194 -152q-96 -26 -313 -26q-216 0 -312 26q-134 35 -194 152q-44 85 -44 303q0 217 44 302q60 117 194 152q96 26 316 26zM2255 797q-180 0 -244 -20q-97 -30 -130 -121q-23 -65 -23 -210q0 -156 28 -223q38 -89 143 -114q65 -15 228 -15q183 0 247 20 q97 30 130 121q23 65 23 211q0 155 -28 222q-38 90 -143 114q-65 15 -231 15z" unicode="%" glyph-name="percent"/>
<glyph horiz-adv-x="2046" d="M2004 3l-285 149q-36 -61 -102 -95t-185 -44q-128 -12 -328 -12q-376 0 -542 11q-158 11 -242 60q-86 49 -124 144q-32 81 -32 214q0 174 54 260q49 78 154 106q50 14 136 17q-71 45 -104 81q-61 66 -61 181q0 184 121 256q46 27 110 38q62 11 220 11q454 0 561 -12 q210 -24 265 -159q31 -76 30 -240h-172q-1 105 -10 144q-17 75 -85 95q-73 23 -319 23q-383 0 -437 -9q-57 -10 -82 -41q-31 -39 -31 -115t46 -121q37 -36 155 -99l898 -474q10 56 10 123q0 58 -4 170h175q4 -66 4 -120q0 -137 -27 -256l275 -145zM620 731q-165 -9 -225 -73 q-58 -61 -58 -246q0 -103 23 -149q24 -47 66 -68q109 -55 554 -55q365 0 501 40q58 18 81 56z" unicode="&amp;" glyph-name="ampersand"/>
<glyph horiz-adv-x="364" d="M240 818h-116l-22 547h160z" unicode="&apos;" glyph-name="quotesingle"/>
<glyph horiz-adv-x="712" d="M657 1412v-136q-138 0 -180 -7q-91 -12 -129 -83q-31 -58 -33 -200q-2 -83 -3 -502q1 -527 10 -605q14 -108 72 -151q44 -32 157 -35q42 -1 106 -1v-135q-192 -1 -278 21q-145 37 -188 188q-24 93 -26 281q-1 53 -1 437q0 490 6 589q6 90 26.5 147.5t59.5 98.5 q37 40 89.5 60.5t134.5 27.5q54 5 177 5z" unicode="(" glyph-name="parenleft"/>
<glyph horiz-adv-x="712" d="M55 -443v135q138 0 179 7q92 12 130 84q31 57 33 200q2 83 3 501q-1 527 -10 606q-14 107 -72 150q-44 33 -157 35q-42 1 -106 1v136q192 0 278 -21q145 -38 188 -189q24 -93 26 -280q1 -53 1 -438q0 -489 -6 -589q-6 -90 -26.5 -147.5t-59.5 -98.5q-37 -40 -89.5 -60.5 t-134.5 -27.5q-55 -5 -177 -4z" unicode=")" glyph-name="parenright"/>
<glyph horiz-adv-x="1388" d="M753 1570v-296l434 140l38 -118l-421 -137l244 -281l-95 -87l-259 298l-258 -298l-95 87l244 281l-421 137l38 118l434 -140v296h117z" unicode="*" glyph-name="asterisk"/>
<glyph horiz-adv-x="1720" d="M920 763h585v-121h-585v-560h-123v560h-581v121h581v548h123v-548z" unicode="+" glyph-name="plus"/>
<glyph horiz-adv-x="590" d="M191 229h208v-229q0 -123 -72 -178q-58 -44 -146 -44h-15v110q102 0 98 112h-73v229z" unicode="," glyph-name="comma"/>
<glyph horiz-adv-x="682" d="M0 608h682v-137h-682v137z" unicode="-" glyph-name="glyph16"/>
<glyph horiz-adv-x="590" d="M191 0v229h208v-229h-208z" unicode="." glyph-name="period"/>
<glyph horiz-adv-x="1510" d="M1260 1375h189l-1534 -1771h-189z" unicode="/" glyph-name="slash"/>
<glyph horiz-adv-x="1857" d="M947 1379q319 0 451 -18q220 -29 280 -201q30 -83 39 -233q4 -70 4 -245q0 -311 -27 -424q-45 -188 -216 -238q-84 -24 -253 -31q-73 -3 -296 -3q-336 0 -469 18q-220 29 -280 201q-30 83 -39 233q-4 70 -4 244q0 311 27 425q44 188 216 238q84 24 253 31q73 3 314 3z M874 1240q-315 0 -416 -28q-113 -32 -140 -165q-19 -95 -19 -364q0 -270 19 -365q27 -133 140 -164q101 -29 420 -29q435 0 522 26q118 35 142 167q17 91 17 365q0 273 -17 364q-25 133 -142 167q-87 26 -526 26z" unicode="0" glyph-name="zero"/>
<glyph horiz-adv-x="1857" d="M483 815l-97 106l566 444h219v-1365h-158v1248z" unicode="1" glyph-name="one"/>
<glyph horiz-adv-x="1857" d="M188 860q0 182 15 247q41 186 221 235q135 37 503 37q383 0 505 -31q149 -37 209 -149q45 -86 45 -245q0 -187 -60 -278t-179 -117q-78 -17 -240 -29l-503 -37q-123 -9 -187 -21q-144 -29 -169 -158q-11 -65 -12 -175h1353v-139h-1519v83q-1 191 14 269q29 132 108 197 q68 53 189 73q40 7 161 16l507 37q229 17 293 58q45 29 62 80q15 46 15 125q0 115 -20 169q-27 74 -120 100q-75 22 -159 26q-125 7 -288 7q-302 0 -413 -27q-111 -26 -145 -109q-26 -63 -26 -201v-43h-160z" unicode="2" glyph-name="two"/>
<glyph horiz-adv-x="1857" d="M725 767h527q151 0 203 63q41 48 41 177q0 108 -27 152q-35 58 -162 73q-70 8 -285 8q-329 0 -436 -8q-143 -10 -198 -49q-58 -41 -67 -161q-1 -24 -2 -76h-160q1 165 25 228q36 94 124 139q76 39 212 52q132 14 430 14q338 0 472 -24q80 -15 137 -56.5t78 -99.5 q26 -73 26 -204q0 -166 -58 -226q-46 -46 -165 -61q112 -15 163 -59q49 -43 66 -113q11 -44 11 -132q0 -196 -46 -269q-37 -59 -97 -91t-157 -44q-89 -11 -379 -11q-458 0 -595 21q-133 21 -197 109q-60 84 -60 260v39h162v-42q0 -116 33 -165q44 -66 182 -75 q172 -11 347 -11q305 0 403 7q122 9 167 37q49 32 60 88q10 51 10 119q0 124 -19 166q-31 67 -118 81q-33 5 -115 5h-536v139z" unicode="3" glyph-name="three"/>
<glyph horiz-adv-x="1857" d="M168 298v214l1100 853h228v-928h221v-139h-221v-298h-158v298h-1170zM297 437h1027v807z" unicode="4" glyph-name="four"/>
<glyph horiz-adv-x="1857" d="M177 416h159q0 -120 15 -161q26 -69 99 -93q113 -37 450 -37q315 0 435 17q125 17 168 85q38 59 38 249q0 159 -45 220q-39 54 -118 71q-116 25 -485 25q-326 0 -432 -32q-82 -25 -97 -103h-163l15 708h1451v-139h-1301l-6 -467q42 101 126 137q58 24 173 31q71 4 244 4 q366 0 505 -21q167 -26 242 -131q40 -56 49 -123t9 -155q0 -225 -29 -307q-52 -145 -233 -184q-113 -24 -430 -24q-410 0 -537 14q-159 18 -230 101q-58 68 -68 192q-4 42 -4 123z" unicode="5" glyph-name="five"/>
<glyph horiz-adv-x="1857" d="M1670 976h-172q0 84 -8 127q-17 88 -119 114q-65 16 -137 19q-96 4 -224 4q-357 0 -448 -18q-155 -30 -192 -121q-24 -58 -24 -193v-299q40 119 116 157q60 29 195 36q109 6 330 6q239 0 377 -11q148 -12 225 -80q48 -41 64 -89q25 -71 25 -196q0 -170 -37 -257 q-50 -116 -192 -155q-79 -23 -163 -27q-131 -7 -315 -7q-344 0 -450 13q-158 20 -232 92q-84 82 -101 276q-9 98 -9 322q0 303 23 411q39 180 217 239q81 27 237 35q97 5 345 5q292 0 398 -25q204 -47 252 -201q17 -56 19 -177zM921 669q-263 0 -354 -12q-135 -19 -181 -90 q-36 -56 -36 -174q0 -128 48 -184q55 -62 219 -74q125 -10 343 -10q282 0 385 23q62 14 96 40.5t52 73.5q18 50 18 174q0 112 -32 157t-109 59q-87 17 -449 17z" unicode="6" glyph-name="six"/>
<glyph horiz-adv-x="1857" d="M131 1365h1541v-198l-1022 -1167h-217l1077 1226h-1379v139z" unicode="7" glyph-name="seven"/>
<glyph horiz-adv-x="1857" d="M1437 693q107 -11 165 -47q48 -31 69 -92q17 -50 17 -175q0 -152 -32 -222q-51 -109 -190 -147q-70 -19 -235 -22q-19 0 -303 -2q-351 2 -419 7q-191 13 -273 107q-42 49 -56 120q-12 56 -12 159q0 138 24 191q29 68 106 98q46 17 121 25q-112 26 -153 59q-45 36 -64 88 t-19 167q0 166 49 238q32 47 77.5 72t121.5 38q150 24 497 24q439 0 578 -44q107 -34 146 -145q21 -60 21 -183q0 -143 -36 -201q-40 -65 -115 -91q-25 -8 -85 -22zM924 1240q-350 0 -455 -23q-84 -18 -108 -90q-14 -40 -14 -114q0 -109 18 -153q30 -74 167 -83 q118 -8 397 -8q277 0 395 8q137 9 167 83q18 44 18 153q0 118 -42 162q-45 48 -186 55q-181 10 -357 10zM921 633q-307 0 -421 -14q-95 -12 -132 -65q-34 -48 -34 -158q0 -153 47 -200q41 -42 154 -56q123 -15 393 -15q402 0 494 38q58 23 80 73q20 46 20 160q0 110 -34 158 q-37 53 -132 65q-114 14 -435 14z" unicode="8" glyph-name="eight"/>
<glyph horiz-adv-x="1857" d="M187 389h172q0 -84 8 -127q17 -88 119 -114q65 -16 137 -19q96 -4 224 -4q357 0 448 18q155 30 192 121q24 58 24 193v299q-40 -119 -116 -157q-60 -29 -195 -36q-109 -6 -330 -6q-239 0 -377 11q-148 12 -225 80q-48 41 -64 89q-25 71 -25 196q0 170 37 257 q50 116 192 156q79 22 163 26q131 7 315 7q344 0 450 -13q158 -20 232 -92q84 -82 101 -276q9 -98 9 -322q0 -303 -23 -411q-39 -180 -217 -239q-81 -27 -237 -35q-97 -5 -345 -5q-291 0 -398 25q-204 47 -252 201q-17 55 -19 177zM893 1240q-278 0 -381 -23 q-83 -19 -118 -62q-36 -44 -43 -111q-5 -53 -5 -115q0 -112 32 -157q32 -44 109 -59q88 -17 443 -17q269 0 360 12q135 19 181 90q36 55 36 174q0 128 -48 183q-55 63 -219 75q-125 10 -347 10z" unicode="9" glyph-name="nine"/>
<glyph horiz-adv-x="590" d="M191 0v229h208v-229h-208zM191 740v229h208v-229h-208z" unicode=":" glyph-name="colon"/>
<glyph horiz-adv-x="590" d="M191 229h208v-229q0 -123 -72 -178q-58 -44 -146 -44h-15v110q102 0 98 112h-73v229zM191 740v229h208v-229h-208z" unicode=";" glyph-name="glyph30"/>
<glyph d="M955 1168v-147l-730 -332l730 -332v-146l-887 415v128z" unicode="&lt;" glyph-name="less"/>
<glyph horiz-adv-x="1720" d="M237 867h1247v-116h-1247v116zM237 646h1247v-116h-1247v116z" unicode="=" glyph-name="equal"/>
<glyph d="M69 210v147l730 332l-730 333v145l887 -414v-128z" unicode="&gt;" glyph-name="greater"/>
<glyph horiz-adv-x="1543" d="M602 436q-1 90 12 130q34 103 153 142q57 16 251 46q112 17 155 45q45 29 61 78q13 41 13 112q0 122 -26 167q-37 62 -161 80q-95 14 -318 14q-210 0 -295 -12q-120 -17 -156 -89q-16 -33 -17 -108q-1 -8 -1 -90v-21h-157v86q0 115 12 162q18 74 85 125q77 59 218 69 q103 8 300 8q314 0 412 -21q144 -31 208 -131q49 -77 49 -254q0 -119 -34 -186q-55 -109 -201 -148q-46 -12 -267 -49q-90 -15 -113 -42q-32 -32 -30 -113h-153zM575 0v229h208v-229h-208z" unicode="?" glyph-name="question"/>
<glyph horiz-adv-x="1921" d="M1656 140h123q-19 -149 -142 -220q-84 -49 -272 -60q-124 -7 -402 -7q-369 0 -516 18q-159 20 -245 119q-74 85 -93 251q-14 118 -14 373q0 341 29 464q48 203 237 261q83 26 276 33q110 4 323 4q366 0 513 -18q159 -20 245 -119q76 -87 93 -251q15 -137 15 -302 q0 -280 -41 -362q-31 -61 -87 -81q-55 -20 -189 -20q-164 0 -216 22t-64 96q-34 -50 -74 -76q-76 -49 -291 -49q-268 0 -338 57q-69 55 -69 171q0 134 45 291q44 157 143 220q91 57 353 57q149 0 217 -19q83 -23 111 -106l20 115h128l-94 -529q-8 -46 -8 -70q0 -45 41 -57 q35 -10 112 -10q74 0 107 14q47 21 55 127q9 111 9 226q0 234 -19 336q-20 106 -79 155q-58 47 -192 59q-129 11 -446 11q-455 0 -551 -28q-93 -27 -134 -99q-34 -60 -43 -197q-9 -125 -9 -326q0 -317 20 -425q20 -106 79 -154q60 -48 192 -61q100 -9 447 -9q359 0 467 10 q115 10 170 58q39 35 58 107zM979 899q-180 0 -237 -24q-74 -32 -107 -128q-23 -68 -38 -170q-9 -59 -9 -105q0 -84 46 -113q28 -16 88.5 -23t181.5 -7q169 0 231 26q75 31 110 127q24 66 39 170q8 58 8 100q0 86 -51 117q-37 22 -87 26q-67 4 -175 4z" unicode="@" glyph-name="at"/>
<glyph horiz-adv-x="1760" d="M1439 307h-1117l-182 -307h-181l804 1365h233l805 -1365h-181zM1362 437l-482 814l-481 -814h963z" unicode="A" glyph-name="A"/>
<glyph horiz-adv-x="1907" d="M191 0v1365h1093q171 0 241 -22q110 -33 163 -129q41 -74 41 -207q0 -123 -33 -181q-47 -84 -228 -105q100 -7 153 -22q82 -24 118 -93q38 -75 38 -208q0 -207 -98 -299q-56 -52 -130 -75q-75 -24 -203 -24h-1155zM355 778h815q155 0 206 5q126 12 159 85q23 50 23 131 q0 150 -88 198q-58 31 -204 31h-911v-450zM355 137h918q125 0 182 14q104 26 132 106q19 52 19 139q0 171 -87 217q-67 35 -283 35h-881v-511z" unicode="B" glyph-name="B"/>
<glyph horiz-adv-x="1918" d="M1621 459h160v-57q0 -169 -34 -242q-58 -124 -225 -152q-133 -23 -555 -23q-428 0 -548 33q-192 54 -240 239q-30 114 -30 425q0 263 18 370q22 132 91 203q69 72 190 99q120 26 663 26q287 0 394 -23q171 -36 226 -168q33 -78 38 -254h-160v38q0 117 -33 169 q-42 65 -213 84q-103 11 -389 11q-369 0 -475 -27q-89 -22 -128 -83q-34 -52 -43 -168q-8 -110 -8 -277q0 -271 19 -361q20 -89 77 -131q55 -39 183 -52q108 -10 343 -10q397 0 526 27q95 19 129 85q24 45 24 141v78z" unicode="C" glyph-name="C"/>
<glyph horiz-adv-x="2028" d="M191 0v1365h1062q237 0 348 -45q129 -52 188 -153q89 -152 89 -484q0 -333 -89 -485q-69 -117 -225 -167q-101 -31 -311 -31h-1062zM355 137h911q289 0 371 133q70 113 70 406q0 316 -73 429q-80 123 -380 123h-899v-1091z" unicode="D" glyph-name="D"/>
<glyph horiz-adv-x="1677" d="M191 0v1365h1361v-137h-1197v-455h1152v-130h-1152v-506h1206v-137h-1370z" unicode="E" glyph-name="E"/>
<glyph horiz-adv-x="1572" d="M191 0v1365h1306v-137h-1142v-470h1084v-130h-1084v-628h-164z" unicode="F" glyph-name="F"/>
<glyph horiz-adv-x="2011" d="M978 674h891q-1 -221 -9 -309q-15 -173 -90 -259q-73 -83 -200 -101q-139 -20 -533 -20q-497 0 -617 33q-192 54 -240 239q-30 114 -30 426q0 311 30 425q48 185 240 238q86 24 281 30q114 4 403 4q299 0 409 -15q131 -17 202 -66q89 -60 122 -180q14 -51 18 -155h-162 q-3 99 -14 139q-24 89 -134 113q-78 18 -176 19q-74 2 -190 2q-471 0 -617 -16q-174 -19 -212 -140q-29 -93 -29 -398q0 -272 19 -362q20 -90 77 -131q55 -39 183 -52q107 -10 365 -10q428 0 536 17q141 22 180 136q21 59 26 179q1 26 2 77h-731v137z" unicode="G" glyph-name="G"/>
<glyph horiz-adv-x="1990" d="M191 0v1365h164v-596h1280v596h164v-1365h-164v639h-1280v-639h-164z" unicode="H" glyph-name="H"/>
<glyph horiz-adv-x="546" d="M191 0v1365h164v-1365h-164z" unicode="I" glyph-name="I"/>
<glyph horiz-adv-x="1516" d="M1174 1365h164v-889q0 -171 -17 -238q-40 -152 -157 -205q-107 -48 -440 -48q-253 0 -387 20q-208 32 -258 183q-23 66 -24 157v103v54h160v-97q0 -135 29 -184q29 -48 103 -67q102 -26 369 -26q274 0 361 44q61 31 83 125q14 62 14 230v838z" unicode="J" glyph-name="J"/>
<glyph horiz-adv-x="1783" d="M191 0v1365h164v-595h247l894 595h276l-997 -662l1049 -703h-276l-949 640h-244v-640h-164z" unicode="K" glyph-name="K"/>
<glyph horiz-adv-x="1479" d="M191 0v1365h164v-1228h1083v-137h-1247z" unicode="L" glyph-name="L"/>
<glyph horiz-adv-x="2552" d="M191 0v1365h265l824 -1174l824 1174h257v-1365h-164v1231l-861 -1231h-120l-861 1231v-1231h-164z" unicode="M" glyph-name="M"/>
<glyph horiz-adv-x="2101" d="M191 0v1365h264l1290 -1248v1248h164v-1365h-264l-1290 1248v-1248h-164z" unicode="N" glyph-name="N"/>
<glyph horiz-adv-x="2058" d="M1038 1380q480 0 600 -33q192 -54 240 -239q30 -114 30 -425q0 -312 -30 -426q-48 -185 -240 -239q-120 -33 -609 -33t-609 33q-192 54 -240 239q-30 114 -30 425q0 312 30 426q48 185 240 239q120 33 618 33zM1020 1237q-414 0 -520 -27q-89 -22 -128 -83 q-34 -52 -43 -168q-8 -110 -8 -277q0 -271 19 -361q20 -89 77 -131q55 -39 183 -52q104 -10 429 -10q348 0 467 14q174 21 212 141q29 93 29 399q0 272 -19 362q-20 90 -77 131q-53 38 -183 50q-134 12 -438 12z" unicode="O" glyph-name="O"/>
<glyph horiz-adv-x="1835" d="M191 0v1365h1103q173 0 241 -20q120 -35 165 -132q39 -83 39 -251q0 -178 -37 -261q-42 -91 -151 -133q-81 -31 -221 -31h-975v-537h-164zM355 674h853q222 0 290 52q70 53 70 226q0 138 -39 193q-31 44 -98.5 63.5t-189.5 19.5h-886v-554z" unicode="P" glyph-name="P"/>
<glyph horiz-adv-x="2058" d="M2001 173l-70 -134l-124 80q-74 -80 -199 -108q-118 -26 -579 -26q-489 0 -609 33q-192 54 -240 239q-30 114 -30 426q0 311 30 425q48 185 240 239q120 33 609 33t609 -33q192 -54 240 -239q30 -114 30 -425q0 -312 -31 -430zM1105 571l82 127l536 -346q14 112 14 334 q0 269 -19 358q-20 90 -77 131q-53 38 -183 50q-133 12 -429 12q-423 0 -529 -27q-89 -22 -128 -83q-34 -52 -43 -168q-8 -110 -8 -277q0 -271 19 -361q20 -89 77 -131q55 -39 183 -52q105 -10 413 -10q315 0 407 7q131 10 193 39q22 10 51 37z" unicode="Q" glyph-name="Q"/>
<glyph horiz-adv-x="1938" d="M191 0v1365h1126q192 0 275 -37q103 -46 145 -140q38 -87 38 -240q0 -227 -109 -290q-60 -34 -198 -48q113 -12 170 -41q57 -31 84 -82.5t27 -131.5v-355h-164v260q-1 112 -15 164q-19 69 -81.5 97.5t-195.5 28.5h-938v-550h-164zM355 680h899q210 0 278 55q41 33 56 82 q16 49 16 140q0 120 -33 171q-42 67 -148 88q-64 12 -179 12h-889v-548z" unicode="R" glyph-name="R"/>
<glyph horiz-adv-x="1831" d="M137 425h164v-36q0 -97 25 -152q25 -54 116 -77q125 -32 452 -32q284 0 421 23q123 20 171 82q38 49 38 165q0 105 -49 150q-58 54 -242 63q-82 4 -543 7q-212 2 -301 22q-150 35 -209 126q-43 67 -43 189q0 220 110 310q93 75 286 96q169 19 418 19q292 0 428 -29 q170 -36 233 -140q31 -52 40 -121q5 -49 8 -114h-160q-5 145 -66 192q-90 69 -480 69q-378 0 -516 -44q-72 -22 -102 -78q-28 -50 -28 -140q0 -136 84 -175q61 -28 202 -34q74 -3 318 -4q356 -1 458 -14q200 -26 270 -126q55 -80 55 -233q0 -142 -48.5 -228t-149.5 -124 q-90 -34 -263 -44q-128 -8 -309 -8q-259 0 -422 14q-206 19 -292 113q-74 80 -74 219v94z" unicode="S" glyph-name="S"/>
<glyph horiz-adv-x="1523" d="M679 0v1228h-693v137h1550v-137h-693v-1228h-164z" unicode="T" glyph-name="T"/>
<glyph horiz-adv-x="1964" d="M1622 1365h164v-927q0 -183 -21 -242q-51 -141 -235 -180q-142 -31 -549 -31q-440 0 -576 38q-174 48 -213 194q-15 55 -15 221v927h164v-898q0 -138 8 -173q28 -117 160 -144q108 -22 472 -22q396 0 496 27q120 33 140 154q5 31 5 158v898z" unicode="U" glyph-name="U"/>
<glyph horiz-adv-x="1659" d="M-41 1365h184l687 -1244l687 1244h183l-755 -1365h-231z" unicode="V" glyph-name="V"/>
<glyph horiz-adv-x="2806" d="M-14 1365h181l567 -1215l575 1215h193l574 -1215l570 1215h173l-645 -1365h-202l-569 1206l-570 -1206h-202z" unicode="W" glyph-name="W"/>
<glyph horiz-adv-x="1732" d="M-27 0l755 725l-688 640h227l599 -560l600 560h227l-688 -640l755 -725h-225l-669 645l-669 -645h-224z" unicode="X" glyph-name="X"/>
<glyph horiz-adv-x="1666" d="M833 709l650 656h224l-792 -791v-574h-164v574l-792 791h224z" unicode="Y" glyph-name="Y"/>
<glyph horiz-adv-x="1704" d="M55 0v137l1319 1091h-1263v137h1503v-137l-1318 -1091h1340v-137h-1581z" unicode="Z" glyph-name="Z"/>
<glyph horiz-adv-x="633" d="M579 1399v-124h-269v-1579h269v-126h-415v1829h415z" unicode="[" glyph-name="bracketleft"/>
<glyph horiz-adv-x="1510" d="M250 1375l1534 -1771h-189l-1534 1771h189z" unicode="\" glyph-name="backslash"/>
<glyph horiz-adv-x="633" d="M55 -430v124h269v1579h-269v126h415v-1829h-415z" unicode="]" glyph-name="bracketright"/>
<glyph d="M212 749h-159l363 620h193l363 -620h-160l-301 503z" unicode="^" glyph-name="asciicircum"/>
<glyph d="M0 -135h1024v-135h-1024v135z" unicode="_" glyph-name="underscore"/>
<glyph d="M648 1111l-431 118l48 136l405 -173z" unicode="`" glyph-name="grave"/>
<glyph horiz-adv-x="1466" d="M167 688q3 178 106 237q68 40 195 52q67 6 223 6q265 0 359 -18q149 -29 207 -117q35 -53 41 -129q4 -52 4 -122v-597h-146v131q-31 -75 -92 -106q-47 -23 -132 -32q-69 -7 -224 -7q-269 0 -353 13q-144 24 -198 115q-34 58 -34 175q0 175 84 232q58 40 188 54 q97 10 282 10q296 0 372 -31q74 -31 107 -102v102q0 146 -25 202q-29 65 -113 84q-88 20 -324 20q-200 0 -278 -20q-78 -21 -90 -97q-3 -20 -4 -55h-155zM709 462q-274 0 -351 -29q-85 -31 -85 -149q0 -128 97 -155q59 -17 226 -19q57 -1 114 -1q254 0 331 26 q117 39 117 160q0 92 -80 134q-64 33 -369 33z" unicode="a" glyph-name="a"/>
<glyph horiz-adv-x="1552" d="M164 0v1379h146v-554q29 59 85 97q93 61 400 61q283 0 413 -44q103 -34 153 -134q55 -109 55 -320q0 -212 -55 -321q-50 -100 -153 -134q-131 -44 -413 -44q-205 0 -306 24q-128 31 -179 133v-143h-146zM779 860q-222 0 -309 -25q-59 -17 -92 -52t-50 -99 q-19 -73 -19 -199q0 -235 76 -306q45 -42 136 -56q88 -14 265 -14q230 0 315 25q60 17 93 52t50 99q19 73 19 200q0 234 -76 305q-45 42 -136 56q-88 14 -272 14z" unicode="b" glyph-name="b"/>
<glyph horiz-adv-x="1461" d="M1352 353q-5 -79 -12 -112q-35 -148 -161 -204q-116 -51 -438 -51q-282 0 -405 43q-99 35 -146 135q-53 110 -53 320q0 211 53 321q47 99 146 134q123 44 404 44q340 0 448 -60q122 -69 144 -222q2 -15 5 -72h-159v17q0 91 -53 142q-46 44 -132 59q-76 13 -268 13 q-215 0 -283 -23q-105 -36 -134 -153q-18 -73 -18 -200q0 -233 71 -304q46 -46 129 -60q68 -11 255 -11q237 0 308 25q115 41 134 144q5 28 6 75h159z" unicode="c" glyph-name="c"/>
<glyph horiz-adv-x="1552" d="M1389 0h-146v143q-28 -57 -86 -95q-92 -62 -399 -62q-282 0 -413 44q-103 34 -153 134q-55 109 -55 321q0 211 55 320q50 100 153 134q130 44 413 44q206 0 306 -24q128 -31 179 -134v554h146v-1379zM760 860q-222 0 -308 -25q-60 -17 -93 -52t-50 -99q-19 -73 -19 -199 q0 -235 76 -306q45 -42 136 -56q88 -14 265 -14q230 0 316 25q59 17 92 52t50 99q19 73 19 200q0 234 -76 305q-45 42 -136 56q-88 14 -272 14z" unicode="d" glyph-name="d"/>
<glyph horiz-adv-x="1493" d="M290 457q1 -108 8 -147q24 -135 145 -176q74 -25 319 -25q221 0 301 22q106 28 135 99q9 23 14 60h149q-9 -124 -80 -194q-72 -70 -208 -91q-123 -19 -320 -19q-277 0 -407 43q-103 35 -154 135q-55 109 -55 320t55 321q51 100 154 134q130 44 405 44q334 0 444 -60 q118 -65 152 -222q18 -80 17 -244h-1074zM1210 576q-1 103 -29 156q-45 86 -153 111q-71 17 -277 17q-230 0 -304 -24q-112 -35 -143 -141q-11 -40 -14 -119h920z" unicode="e" glyph-name="e"/>
<glyph horiz-adv-x="799" d="M212 0v846h-212v123h212v75q1 144 48 218q60 97 215 118q86 10 237 11h128v-123h-98q-170 0 -220 -10q-97 -18 -135 -73q-28 -41 -29 -135v-81h482v-123h-482v-846h-146z" unicode="f" glyph-name="f"/>
<glyph horiz-adv-x="1552" d="M1389 969v-874q0 -247 -35 -335q-50 -122 -151 -167q-116 -51 -434 -51q-267 0 -390 33q-103 28 -164 115q-55 80 -55 185v20h148v-20q0 -90 62 -145q46 -41 133 -54q71 -11 275 -11q230 0 303 22q91 27 124 101q30 67 35 202q2 45 3 153q-37 -63 -86 -96 q-93 -61 -399 -61q-284 0 -413 44q-103 34 -153 134q-55 109 -55 321q0 210 55 320q50 100 153 134q129 44 413 44q206 0 305 -24q97 -24 149 -88q14 -16 31 -46v144h146zM747 860q-233 0 -306 -23q-112 -36 -142 -153q-19 -73 -19 -199q0 -234 76 -306q49 -45 136 -59 q72 -11 265 -11q245 0 317 23q112 37 142 153q19 73 19 200q0 234 -76 305q-48 45 -136 59q-72 11 -276 11z" unicode="g" glyph-name="g"/>
<glyph horiz-adv-x="1490" d="M164 0v1379h146v-602q32 98 116 146q57 34 155 47q84 11 245 11q153 0 234 -16q176 -34 232 -149q34 -70 34 -206v-610h-146v603q0 138 -54 186q-53 47 -170 61q-63 7 -172 7q-196 0 -304 -36q-115 -39 -154 -138q-16 -42 -16 -114v-569h-146z" unicode="h" glyph-name="h"/>
<glyph horiz-adv-x="474" d="M164 0v969h146v-969h-146zM164 1200v179h146v-179h-146z" unicode="i" glyph-name="i"/>
<glyph horiz-adv-x="473" d="M164 969h145v-1018q0 -136 -31 -197q-53 -103 -245 -103q-13 0 -42 1v123q26 -2 39 -2q88 0 115 55q19 38 19 152v989zM164 1200v179h145v-179h-145z" unicode="j" glyph-name="j"/>
<glyph horiz-adv-x="1288" d="M164 0v1379h146v-799h85l610 389h243l-707 -451l774 -518h-238l-682 457h-85v-457h-146z" unicode="k" glyph-name="k"/>
<glyph horiz-adv-x="474" d="M164 0v1379h146v-1379h-146z" unicode="l" glyph-name="l"/>
<glyph horiz-adv-x="2373" d="M164 0v969h146v-190q36 101 108 146q54 34 145 47q77 11 225 11q137 0 207 -16q140 -31 193 -124q13 -23 26 -64q37 91 111 138q61 39 163 53q88 13 253 13q144 0 219 -16q166 -35 218 -149q32 -70 32 -207v-611h-146v604q0 113 -29 160q-39 62 -153 84q-66 12 -181 12 q-180 0 -282 -39q-159 -61 -159 -251v-570h-146v604q0 113 -29 160q-39 62 -153 84q-66 12 -181 12q-237 0 -340 -69q-101 -67 -101 -221v-570h-146z" unicode="m" glyph-name="m"/>
<glyph horiz-adv-x="1493" d="M164 0v969h146v-192q39 109 116 157q59 36 156 50q84 12 243 12q156 0 237 -16q176 -36 233 -156q34 -72 34 -214v-610h-146v603q0 139 -54 188q-53 47 -170 61q-64 7 -172 7q-197 0 -305 -36q-172 -58 -172 -254v-569h-146z" unicode="n" glyph-name="n"/>
<glyph horiz-adv-x="1533" d="M774 983q286 0 415 -44q103 -34 153 -134q55 -110 55 -320q0 -211 -55 -321q-50 -99 -153 -134q-130 -44 -422 -44t-422 44q-103 34 -153 134q-55 109 -55 320q0 212 55 321q51 100 153 134q130 44 429 44zM760 860q-222 0 -308 -25q-60 -17 -93 -52t-50 -99 q-19 -73 -19 -199q0 -235 76 -306q45 -42 136 -56q88 -14 265 -14q230 0 315 25q60 17 93 52t50 99q19 73 19 200q0 234 -76 305q-44 42 -136 56q-89 14 -272 14z" unicode="o" glyph-name="o"/>
<glyph horiz-adv-x="1552" d="M164 969h146v-143q29 58 85 95q93 62 400 62q283 0 413 -44q103 -34 153 -134q55 -109 55 -321q0 -211 -55 -320q-50 -100 -153 -134q-131 -44 -413 -44q-205 0 -306 24q-128 31 -179 134v-554h-146v1379zM779 860q-222 0 -309 -25q-59 -17 -92 -52t-50 -99 q-19 -73 -19 -199q0 -235 76 -306q45 -42 136 -56q88 -14 265 -14q230 0 315 25q60 17 93 52t50 99q19 73 19 200q0 234 -76 305q-45 42 -136 56q-88 14 -272 14z" unicode="p" glyph-name="p"/>
<glyph horiz-adv-x="1552" d="M1389 969v-1379h-146v554q-29 -59 -85 -97q-93 -61 -400 -61q-282 0 -413 44q-103 34 -153 134q-55 109 -55 320q0 212 55 321q50 100 153 134q130 44 413 44q206 0 306 -24q128 -31 179 -133v143h146zM760 860q-222 0 -308 -25q-60 -17 -93 -52t-50 -99 q-19 -73 -19 -199q0 -235 76 -306q45 -42 136 -56q88 -14 265 -14q230 0 316 25q59 17 92 52t50 99q19 73 19 200q0 234 -76 305q-45 42 -136 56q-88 14 -272 14z" unicode="q" glyph-name="q"/>
<glyph horiz-adv-x="1224" d="M164 0v969h146v-190q33 101 98 146q50 34 133 47q72 11 207 11q134 0 204 -16q153 -35 202 -150q29 -69 29 -205v-58h-146v51q0 114 -26 161q-36 65 -137 83q-58 11 -163 11q-221 0 -310 -66q-91 -68 -91 -223v-571h-146z" unicode="r" glyph-name="r"/>
<glyph horiz-adv-x="1461" d="M1159 695v23q0 81 -49 106q-72 37 -347 37q-266 0 -365 -22q-56 -12 -83 -47q-24 -31 -24 -95q0 -91 67 -117q30 -12 91 -15q62 -4 281 -5q316 -3 406 -17q118 -19 166 -91q37 -55 37 -172q0 -138 -56 -201q-56 -62 -191 -79q-110 -14 -367 -14q-295 0 -404 22 q-116 23 -167 113q-23 41 -27 84q-4 38 -4 97v25h150v-24q0 -75 11 -103q22 -57 104 -72q110 -19 378 -19q286 0 353 29t67 136q0 100 -51 128q-40 22 -135 28q-48 3 -277 5q-323 1 -408 15q-177 29 -177 247q0 175 110 230q66 33 187 46q90 10 270 10q312 0 405 -22 q139 -33 177 -125q19 -48 19 -124v-17h-147z" unicode="s" glyph-name="s"/>
<glyph horiz-adv-x="1114" d="M-14 846v123h233l4 215h147l-4 -215h665v-123h-668l-8 -485q-3 -117 25 -170q27 -53 104 -69q63 -13 183 -13q121 0 174 25q63 30 75 105q5 32 5 148v33h131v-39q0 -154 -12 -213q-21 -99 -121 -143q-89 -39 -264 -39q-230 0 -317 47q-111 60 -127 186q-5 44 -3 142 l9 485h-231z" unicode="t" glyph-name="t"/>
<glyph horiz-adv-x="1493" d="M1329 969v-969h-146v192q-39 -109 -117 -157q-58 -36 -155 -50q-84 -12 -243 -12q-157 0 -237 16q-176 36 -233 156q-34 72 -34 214v610h146v-603q0 -139 54 -188q53 -47 170 -61q64 -7 172 -7q198 0 305 36q172 58 172 254v569h146z" unicode="u" glyph-name="u"/>
<glyph horiz-adv-x="1244" d="M-41 969h166l497 -868l498 868h164l-558 -969h-209z" unicode="v" glyph-name="v"/>
<glyph horiz-adv-x="1932" d="M0 969h160l379 -856l319 856h221l319 -856l379 856h155l-434 -969h-206l-326 866l-326 -866h-207z" unicode="w" glyph-name="w"/>
<glyph horiz-adv-x="1274" d="M-14 0l542 509l-470 460h189l390 -380l389 380h190l-471 -460l542 -509h-194l-456 429l-456 -429h-195z" unicode="x" glyph-name="x"/>
<glyph horiz-adv-x="1162" d="M-34 969h160l482 -873l434 873h154l-522 -1047q-89 -178 -134 -241q-109 -149 -341 -149q-21 0 -61 2v121q31 -1 48 -1q132 0 203 63q51 46 132 205l39 78h-55z" unicode="y" glyph-name="y"/>
<glyph horiz-adv-x="1245" d="M68 0v123l880 723h-841v123h1051v-123l-882 -723h886v-123h-1094z" unicode="z" glyph-name="z"/>
<glyph horiz-adv-x="712" d="M657 1276q-127 0 -163 -4q-87 -10 -128 -56q-39 -47 -49 -149q-7 -54 -7 -230v-113q0 -110 -33 -165q-25 -41 -83 -75q64 -36 89 -85q27 -58 27 -155v-113q1 -208 13 -274q23 -143 153 -158q42 -7 181 -7v-135q-163 0 -228 10q-155 23 -218 146q-32 58 -42 182 q-5 61 -5 231v109q-2 91 -30 126q-32 41 -86 53v141q54 12 86 52q28 35 30 127v108q1 225 13 296q27 196 185 248q90 26 295 26v-136z" unicode="{" glyph-name="braceleft"/>
<glyph d="M439 1365h147v-1706h-147v1706z" unicode="|" glyph-name="bar"/>
<glyph horiz-adv-x="712" d="M55 -308q127 0 163 5q87 9 128 55q39 47 50 149q6 54 6 230v113q0 110 33 166q25 41 83 74q-64 37 -89 86q-27 57 -27 154v113q0 208 -13 275q-23 142 -153 157q-42 7 -181 7v136q163 0 228 -11q155 -22 218 -145q32 -58 42 -183q5 -61 5 -231v-108q2 -92 30 -127 q32 -40 86 -52v-141q-54 -13 -86 -53q-28 -35 -30 -126v-109q-1 -225 -13 -296q-27 -195 -185 -248q-90 -26 -295 -25v135z" unicode="}" glyph-name="braceright"/>
<glyph horiz-adv-x="1365" d="M277 1193l-87 57q43 85 75 128q81 106 205 106q77 0 230 -71q103 -47 135 -56q34 -9 64 -9q72 0 120 49q29 30 66 91l89 -52q-55 -110 -111 -159q-82 -70 -182 -70q-35 0 -90 17q-57 18 -197 82q-83 38 -137 38q-99 0 -180 -151z" unicode="~" glyph-name="asciitilde"/>
<glyph horiz-adv-x="512" unicode=" " glyph-name="nbspace"/>
<glyph horiz-adv-x="590" d="M368 565l9 -961h-167l9 961h149zM399 969v-229h-208v229h208z" unicode="¡" glyph-name="exclamdown"/>
<glyph horiz-adv-x="1857" d="M1008 202v-202h-130v201q-172 3 -255 17q-127 21 -190 79q-62 57 -90 158q-24 89 -24 244q0 250 74 355q50 72 126 99q114 40 359 43v169h130v-170q174 -5 257 -23q253 -46 257 -329h-160q1 14 1 22q0 117 -89 163q-62 31 -196 38q-24 1 -70 3v-740q101 2 153 6 q163 16 200 122q16 42 17 110h159q-5 -86 -20 -138q-55 -171 -245 -204q-89 -19 -264 -23zM878 1070q-108 -2 -177 -8q-147 -13 -189 -114q-34 -83 -34 -249q0 -167 34 -250q42 -101 189 -114q70 -6 177 -8v743z" unicode="¢" glyph-name="cent"/>
<glyph horiz-adv-x="1857" d="M83 674h245v244q0 146 19 212q43 152 209 207q127 42 506 42q336 0 444 -32q156 -47 193 -189q17 -65 17 -213h-166q0 107 -7 149q-11 70 -50 99q-33 25 -119 35q-104 12 -316 12q-300 0 -406 -32q-111 -34 -144 -123q-22 -58 -22 -174v-237h688v-139h-688v-149 q0 -95 -15 -131q-26 -68 -97 -116h1400v-139h-1621v139q81 8 122 48q32 32 45 94q8 34 8 119v135h-245v139z" unicode="£" glyph-name="sterling"/>
<glyph horiz-adv-x="1391" d="M143 200l186 190q-106 135 -106 294q0 151 107 291l-193 190l71 71l190 -190q143 109 298 109q156 0 295 -108l191 188l70 -70l-190 -189q107 -141 107 -294q0 -152 -105 -291l191 -191l-70 -71l-191 191q-136 -106 -295 -106q-149 0 -297 105l-190 -190zM692 1044 q-144 0 -250 -107q-104 -104 -104 -253t105 -254t253 -105t254 106q104 104 104 252q0 152 -104 255q-107 106 -258 106z" unicode="¤" glyph-name="currency"/>
<glyph horiz-adv-x="1857" d="M928 698l651 667h221l-542 -541h421v-126h-560l-112 -124v-63h672v-126h-672v-385h-158v385h-671v126h671v63l-111 124h-560v126h420l-541 541h221z" unicode="¥" glyph-name="yen"/>
<glyph d="M439 1365h147v-681h-147v681zM439 314h147v-655h-147v655z" unicode="¦" glyph-name="brokenbar"/>
<glyph horiz-adv-x="1857" d="M1441 143q35 -24 51 -45q51 -67 51 -200q0 -135 -46 -204q-59 -88 -190 -112q-102 -19 -390 -19q-318 0 -424 35q-145 48 -171 204q-8 48 -8 184h160q0 -124 9 -161q18 -77 101 -102q78 -23 336 -23q269 0 358 24q66 18 85 66q15 37 15 122q0 76 -21 110q-25 40 -105 57 q-51 10 -155 17l-462 33q-130 9 -194 22q-100 21 -152 95q-51 73 -51 222q0 159 56 237q43 61 122 91q-35 24 -51 45q-51 67 -51 200q0 135 46 204q59 88 190 112q102 19 390 19q319 0 424 -35q146 -48 171 -204q8 -48 8 -184h-159v51q0 98 -19 142q-25 55 -105 73 q-88 20 -323 20q-269 0 -357 -24q-67 -18 -86 -66q-15 -37 -15 -122q0 -75 21 -110q25 -41 105 -57q51 -10 155 -17l462 -33q131 -9 194 -22q101 -21 153 -95q51 -72 51 -222q0 -159 -56 -237q-43 -61 -123 -91zM1193 233q104 3 139 11q88 19 110 87q13 43 13 151 q0 79 -21 113q-24 41 -105 57q-51 10 -155 18l-463 32q-15 1 -46 4q-103 -3 -139 -11q-88 -19 -110 -87q-13 -43 -13 -151q0 -79 21 -113q25 -41 105 -57q51 -10 155 -18l462 -32q8 -1 47 -4z" unicode="§" glyph-name="section"/>
<glyph d="M130 1149v131h279v-131h-279zM615 1149v131h278v-131h-278z" unicode="¨" glyph-name="dieresis"/>
<glyph horiz-adv-x="1835" d="M930 1420q277 0 417 -53q175 -65 265 -205q105 -163 105 -479q0 -292 -90 -455q-67 -120 -194 -190q-107 -59 -223 -74q-134 -18 -292 -18q-290 0 -429 53q-176 66 -265 205q-105 163 -105 479q0 293 90 455q68 121 194 190q107 59 223 74q133 18 304 18zM907 1320 q-237 0 -358 -46q-151 -57 -228 -177q-90 -141 -90 -414q0 -340 150 -487q82 -81 206 -118q109 -32 331 -32q250 0 369 45q151 58 228 178q90 141 90 414q0 253 -78 393q-57 104 -166 164q-93 51 -192 65q-114 15 -262 15zM1298 558h108v-41q0 -101 -21 -146 q-36 -76 -137 -93q-80 -14 -330 -14q-252 0 -324 20q-116 33 -146 146q-18 68 -18 253t18 252q30 114 146 146q72 20 392 20q189 0 252 -13q105 -23 138 -104q20 -48 23 -159h-108v26q0 70 -19 99q-22 35 -120 46q-60 7 -227 7q-219 0 -280 -16q-74 -18 -90 -93 q-11 -52 -11 -211q0 -160 11 -212q16 -74 90 -94q56 -15 261 -15q232 0 307 16q53 11 72 47q13 25 13 80v53z" unicode="©" glyph-name="copyright"/>
<glyph horiz-adv-x="914" d="M108 949q1 119 68 157q43 24 121 31q41 4 135 4q186 0 255 -20t98 -73q23 -42 23 -142v-360h-107v49q-27 -30 -60 -40q-55 -17 -198 -17q-164 0 -215 8q-91 14 -125 72q-22 36 -22 107q0 108 54 144q37 25 118 33q59 6 172 6q132 0 188 -9q48 -7 88 -45v26q0 83 -14 114 q-16 34 -61 44q-52 12 -195 12q-165 0 -194 -29q-17 -17 -17 -72h-112zM439 817q-158 0 -204 -16q-45 -16 -45 -78q0 -69 51 -83q42 -11 208 -11q145 0 189 15q64 21 64 85q0 48 -42 69q-37 19 -221 19z" unicode="ª" glyph-name="ordfeminine"/>
<glyph horiz-adv-x="1070" d="M102 509l305 521l109 -73l-260 -448l260 -448l-109 -73zM539 509l305 521l109 -73l-260 -448l260 -448l-109 -73z" unicode="«" glyph-name="guillemotleft"/>
<glyph d="M808 0v409h-740v137h887v-546h-147z" unicode="¬" glyph-name="logicalnot"/>
<glyph horiz-adv-x="682" d="M0 608h682v-137h-682v137z" unicode="­" glyph-name="sfthyphen"/>
<glyph horiz-adv-x="1835" d="M943 1420q277 0 417 -53q175 -65 265 -205q105 -163 105 -479q0 -292 -90 -455q-67 -120 -194 -190q-107 -59 -223 -74q-134 -18 -292 -18q-290 0 -429 53q-176 66 -265 205q-105 163 -105 479q0 293 90 455q68 121 194 190q107 59 223 74q133 18 304 18zM920 1320 q-237 0 -358 -46q-151 -57 -228 -177q-90 -141 -90 -414q0 -340 150 -487q82 -81 206 -118q109 -32 331 -32q250 0 369 45q151 58 228 178q90 141 90 414q0 253 -78 393q-57 104 -166 164q-93 51 -192 65q-114 15 -262 15zM457 273v819h672q115 0 164 -22q63 -28 89 -86 q23 -53 23 -145q0 -121 -51 -165q-28 -24 -85 -34q121 -25 121 -151v-216h-110v160q-1 104 -30 132q-34 33 -136 33h-547v-325h-110zM567 688h524q122 0 160 31q40 32 40 126q0 69 -18 97q-24 37 -83 49q-37 7 -105 7h-518v-310z" unicode="®" glyph-name="registered"/>
<glyph d="M0 1766h1024v-132h-1024v132z" unicode="¯" glyph-name="overscore"/>
<glyph horiz-adv-x="750" d="M379 1379q113 0 203 -86q86 -82 86 -205q0 -124 -86 -210t-207 -86t-207 86t-86 209q0 125 86 206q91 86 211 86zM373 1273q-74 0 -132 -55q-56 -53 -56 -132t55 -134q56 -56 136 -56q79 0 135 56q55 55 55 133q0 81 -56 133q-59 55 -137 55z" unicode="°" glyph-name="degree"/>
<glyph horiz-adv-x="1720" d="M919 858h582v-121h-582v-519h-123v519h-578v121h578v507h123v-507zM1501 121v-121h-1283v121h1283z" unicode="±" glyph-name="plusminus"/>
<glyph horiz-adv-x="1148" d="M121 1050q-1 31 -1 44q0 104 25 160q36 80 139 101q92 18 286 18q234 0 308 -18q94 -23 132 -93q28 -51 28 -148q0 -160 -87 -214q-39 -24 -105 -33q-40 -6 -104 -10l-302 -22q-73 -5 -111 -12q-80 -16 -93 -85q-7 -35 -8 -91h812v-101h-931v61q0 110 9 157 q23 115 128 152q51 16 156 23l304 22q134 9 171 32q42 26 42 111q0 101 -35 128q-30 24 -98 33q-55 7 -210 7q-180 0 -246 -15q-61 -15 -80 -59q-15 -35 -15 -107q0 -13 1 -41h-115z" unicode="²" glyph-name="twosuperior"/>
<glyph horiz-adv-x="1148" d="M443 1015h326q86 0 115 33q22 26 22 99q0 59 -15 82q-19 30 -90 38q-41 5 -204 5q-204 0 -272 -9q-85 -10 -99 -69q-7 -28 -7 -93h-115q0 107 15 146q33 84 148 109q82 17 318 17q205 0 288 -15q108 -19 136 -96q16 -45 16 -124q0 -69 -16 -106q-18 -42 -76 -62 q46 -15 68 -43q34 -43 34 -133q0 -119 -29 -165q-45 -69 -159 -83q-55 -7 -233 -7q-271 0 -354 13q-85 12 -125 67q-38 52 -38 154q0 11 1 37h116q-1 -28 -1 -40q0 -94 54 -113t272 -19q289 0 330 19q29 14 39 42q8 24 8 76q0 71 -11 94q-16 35 -63 42q-19 3 -68 3h-331v101 z" unicode="³" glyph-name="threesuperior"/>
<glyph d="M376 1111l-22 81l405 173l48 -136z" unicode="´" glyph-name="acute"/>
<glyph horiz-adv-x="1493" d="M164 -410v1379h146v-569q0 -130 72 -196q102 -94 364 -94q263 0 365 94q72 66 72 196v569h146v-969h-146v192q-39 -109 -116 -157q-97 -61 -321 -61q-243 0 -340 75q-62 47 -96 143v-602h-146z" unicode="µ" glyph-name="mu"/>
<glyph horiz-adv-x="1342" d="M622 -205v857q-183 0 -248 9q-144 21 -199 103q-52 77 -52 243q0 154 44 231q41 72 121 96q104 31 334 31h529v-1570h-132v1459h-265v-1459h-132z" unicode="¶" glyph-name="paragraph"/>
<glyph horiz-adv-x="535" d="M164 382v229h208v-229h-208z" unicode="·" glyph-name="middot"/>
<glyph d="M351 -351l-55 87l304 175l73 -123z" unicode="¸" glyph-name="cedilla"/>
<glyph horiz-adv-x="1148" d="M306 1020l-72 77l351 268h144v-819h-114v721z" unicode="¹" glyph-name="onesuperior"/>
<glyph horiz-adv-x="954" d="M481 1141q172 0 251 -26q66 -21 98 -83q34 -67 34 -192q0 -179 -75 -243q-41 -36 -123 -49q-68 -10 -190 -10q-176 0 -256 26q-65 21 -97 83q-34 66 -34 192q0 179 75 243q41 36 123 49q66 10 194 10zM472 1050q-131 0 -182 -14q-62 -17 -79 -82q-11 -41 -11 -114 q0 -134 43 -173q24 -22 76 -30t157 -8q137 0 187 14q62 17 79 82q11 41 11 115q0 133 -42 172q-25 22 -77 30q-53 8 -162 8z" unicode="º" glyph-name="ordmasculine"/>
<glyph horiz-adv-x="1070" d="M967 509l-305 -521l-109 73l261 448l-261 448l109 73zM530 509l-305 -521l-109 73l261 448l-261 448l109 73z" unicode="»" glyph-name="guillemotright"/>
<glyph horiz-adv-x="2570" d="M306 1020l-72 77l351 268h144v-819h-114v721zM622 -10l1199 1385h126l-1199 -1385h-126zM1529 175v140l667 504h149v-543h133v-101h-133v-175h-114v175h-702zM1644 276h579v443z" unicode="¼" glyph-name="onequarter"/>
<glyph horiz-adv-x="2570" d="M306 1020l-72 77l351 268h144v-819h-114v721zM622 -10l1199 1385h126l-1199 -1385h-126zM1542 504q-1 31 -1 44q0 104 25 160q36 80 139 101q92 18 286 18q234 0 308 -18q94 -23 132 -93q28 -52 28 -148q0 -161 -87 -214q-39 -24 -104 -33q-38 -5 -105 -10l-302 -22 q-73 -5 -111 -12q-80 -16 -93 -85q-7 -35 -8 -91h812v-101h-931v61q0 110 9 157q23 115 128 152q51 16 156 23l304 22q134 9 171 32q42 26 42 111q0 101 -35 128q-30 24 -98 33q-54 7 -210 7q-180 0 -246 -15q-61 -15 -80 -59q-15 -35 -15 -107q0 -13 1 -41h-115z" unicode="½" glyph-name="onehalf"/>
<glyph horiz-adv-x="2570" d="M443 1015h326q86 0 115 33q22 26 22 99q0 59 -15 82q-19 30 -90 38q-41 5 -204 5q-204 0 -272 -9q-85 -10 -99 -69q-7 -28 -7 -93h-115q0 107 15 146q33 84 148 109q82 17 318 17q205 0 288 -15q108 -19 136 -96q16 -45 16 -124q0 -69 -16 -106q-18 -42 -76 -62 q46 -15 68 -43q34 -43 34 -133q0 -119 -29 -165q-45 -69 -159 -83q-55 -7 -233 -7q-271 0 -354 13q-85 12 -125 67q-38 52 -38 154q0 11 1 37h116q-1 -28 -1 -40q0 -94 54 -113t272 -19q289 0 330 19q29 14 39 42q8 24 8 76q0 71 -11 94q-16 35 -63 42q-19 3 -68 3h-331v101 zM622 -10l1199 1385h127l-1200 -1385h-126zM1530 175v140l666 504h149v-543h133v-101h-133v-175h-114v175h-701zM1645 276h578v443z" unicode="¾" glyph-name="threequarters"/>
<glyph horiz-adv-x="1543" d="M941 533v-21q0 -157 -90 -216q-53 -35 -153 -53q-19 -4 -173 -28q-112 -17 -155 -45q-45 -29 -60 -77q-14 -42 -14 -113q0 -121 27 -167q36 -62 160 -80q95 -14 318 -14q209 0 295 12q120 17 156 89q15 33 17 108q1 8 1 90v21h157v-86q0 -115 -12 -163q-18 -73 -85 -125 q-77 -58 -218 -68q-102 -8 -300 -8q-314 0 -412 21q-144 31 -208 131q-49 77 -49 254q0 129 42 202q50 86 147 118q63 21 242 51q116 19 160 37q56 29 54 130h153zM968 969v-229h-208v229h208z" unicode="¿" glyph-name="questiondown"/>
<glyph horiz-adv-x="1760" d="M1439 307h-1117l-182 -307h-181l804 1365h233l805 -1365h-181zM1362 437l-482 814l-481 -814h963zM1023 1494l-537 104l55 145l512 -159z" unicode="À" glyph-name="Agrave"/>
<glyph horiz-adv-x="1760" d="M1439 307h-1117l-182 -307h-181l804 1365h233l805 -1365h-181zM1362 437l-482 814l-481 -814h963zM749 1494l-30 90l513 159l54 -145z" unicode="Á" glyph-name="Aacute"/>
<glyph horiz-adv-x="1760" d="M1439 307h-1117l-182 -307h-181l804 1365h233l805 -1365h-181zM1362 437l-482 814l-481 -814h963zM880 1742l398 -162l-27 -86l-371 93l-371 -93l-27 86z" unicode="Â" glyph-name="Acircumflex"/>
<glyph horiz-adv-x="1760" d="M1439 307h-1117l-182 -307h-181l804 1365h233l805 -1365h-181zM1362 437l-482 814l-481 -814h963zM487 1498q5 67 31 113q61 109 192 109q50 0 93 -15q30 -10 86 -32q102 -41 153 -41q85 0 101 95h130q-5 -67 -30 -113q-61 -109 -192 -109q-51 0 -94 14q-28 10 -85 33 q-103 41 -154 41q-85 0 -100 -95h-131z" unicode="Ã" glyph-name="Atilde"/>
<glyph horiz-adv-x="1760" d="M1439 307h-1117l-182 -307h-181l804 1365h233l805 -1365h-181zM1362 437l-482 814l-481 -814h963zM486 1526v142h287v-142h-287zM987 1526v142h287v-142h-287z" unicode="Ä" glyph-name="Adieresis"/>
<glyph horiz-adv-x="1760" d="M1439 307h-1117l-182 -307h-181l804 1365h233l805 -1365h-181zM1362 437l-482 814l-481 -814h963zM885 1781q121 0 202 -42q79 -41 79 -115q0 -73 -79 -114q-81 -42 -206 -42q-126 0 -206 42q-36 19 -58.5 50.5t-22.5 63.5q0 33 22.5 64.5t58.5 50.5q81 42 210 42z M878 1697q-65 0 -115 -17q-51 -18 -51 -56q0 -37 51 -55q49 -17 117 -17t117 17q51 18 51 55q0 38 -51 56q-50 17 -119 17z" unicode="Å" glyph-name="Aring"/>
<glyph horiz-adv-x="2818" d="M-68 0l1097 1365h1663v-137h-1169v-455h1125v-130h-1125v-506h1179v-137h-1343v299h-987l-239 -299h-201zM1124 1235l-648 -806h883v806h-235z" unicode="Æ" glyph-name="AE"/>
<glyph horiz-adv-x="1918" d="M1621 459h160v-57q0 -169 -34 -242q-58 -124 -225 -152q-133 -23 -555 -23q-428 0 -548 33q-192 54 -240 239q-30 114 -30 425q0 263 18 370q22 132 91 203q69 72 190 99q120 26 663 26q287 0 394 -23q171 -36 226 -168q33 -78 38 -254h-160v38q0 117 -33 169 q-42 65 -213 84q-103 11 -389 11q-369 0 -475 -27q-89 -22 -128 -83q-34 -52 -43 -168q-8 -110 -8 -277q0 -271 19 -361q20 -89 77 -131q55 -39 183 -52q108 -10 343 -10q397 0 526 27q95 19 129 85q24 45 24 141v78zM791 -364l-55 93l311 175l73 -123z" unicode="Ç" glyph-name="Ccedilla"/>
<glyph horiz-adv-x="1677" d="M191 0v1365h1361v-137h-1197v-455h1152v-130h-1152v-506h1206v-137h-1370zM1079 1494l-537 104l55 145l512 -159z" unicode="È" glyph-name="Egrave"/>
<glyph horiz-adv-x="1677" d="M191 0v1365h1361v-137h-1197v-455h1152v-130h-1152v-506h1206v-137h-1370zM714 1494l-30 90l513 159l54 -145z" unicode="É" glyph-name="Eacute"/>
<glyph horiz-adv-x="1677" d="M191 0v1365h1361v-137h-1197v-455h1152v-130h-1152v-506h1206v-137h-1370zM880 1742l398 -162l-27 -86l-371 93l-371 -93l-27 86z" unicode="Ê" glyph-name="Ecircumflex"/>
<glyph horiz-adv-x="1677" d="M191 0v1365h1361v-137h-1197v-455h1152v-130h-1152v-506h1206v-137h-1370zM485 1526v142h288v-142h-288zM986 1526v142h288v-142h-288z" unicode="Ë" glyph-name="Edieresis"/>
<glyph horiz-adv-x="546" d="M192 0v1365h164v-1365h-164zM398 1494l-428 111l55 138l403 -159z" unicode="Ì" glyph-name="Igrave"/>
<glyph horiz-adv-x="546" d="M191 0v1365h164v-1365h-164zM155 1494l-30 90l403 159l55 -138z" unicode="Í" glyph-name="Iacute"/>
<glyph horiz-adv-x="546" d="M192 0v1365h164v-1365h-164zM273 1742l303 -167l-34 -81l-269 93l-268 -93l-34 81z" unicode="Î" glyph-name="Icircumflex"/>
<glyph horiz-adv-x="546" d="M191 0v1365h164v-1365h-164zM-15 1526v142h240v-142h-240zM320 1526v142h240v-142h-240z" unicode="Ï" glyph-name="Idieresis"/>
<glyph horiz-adv-x="2028" d="M191 639h-191v130h191v596h1063q236 0 347 -45q129 -52 188 -153q89 -152 89 -484q0 -333 -89 -485q-69 -118 -225 -167q-100 -31 -310 -31h-1063v639zM355 639v-502h911q289 0 371 133q70 113 70 406q0 316 -73 429q-80 123 -380 123h-899v-459h652v-130h-652z" unicode="Ð" glyph-name="Eth"/>
<glyph horiz-adv-x="2101" d="M191 0v1365h264l1290 -1248v1248h164v-1365h-264l-1290 1248v-1248h-164zM712 1498q5 67 31 113q61 109 192 109q50 0 93 -15q30 -10 86 -32q102 -41 153 -41q85 0 101 95h130q-5 -67 -30 -113q-61 -109 -192 -109q-51 0 -94 14q-28 10 -85 33q-103 41 -154 41 q-85 0 -100 -95h-131z" unicode="Ñ" glyph-name="Ntilde"/>
<glyph horiz-adv-x="2058" d="M1038 1380q480 0 600 -33q192 -54 240 -239q30 -114 30 -425q0 -312 -30 -426q-48 -185 -240 -239q-120 -33 -609 -33t-609 33q-192 54 -240 239q-30 114 -30 425q0 312 30 426q48 185 240 239q120 33 618 33zM1020 1237q-414 0 -520 -27q-89 -22 -128 -83 q-34 -52 -43 -168q-8 -110 -8 -277q0 -271 19 -361q20 -89 77 -131q55 -39 183 -52q104 -10 429 -10q348 0 467 14q174 21 212 141q29 93 29 399q0 272 -19 362q-20 90 -77 131q-53 38 -183 50q-134 12 -438 12zM1208 1494l-537 104l55 145l512 -159z" unicode="Ò" glyph-name="Ograve"/>
<glyph horiz-adv-x="2058" d="M1038 1380q480 0 600 -33q192 -54 240 -239q30 -114 30 -425q0 -312 -30 -426q-48 -185 -240 -239q-120 -33 -609 -33t-609 33q-192 54 -240 239q-30 114 -30 425q0 312 30 426q48 185 240 239q120 33 618 33zM1020 1237q-414 0 -520 -27q-89 -22 -128 -83 q-34 -52 -43 -168q-8 -110 -8 -277q0 -271 19 -361q20 -89 77 -131q55 -39 183 -52q104 -10 429 -10q348 0 467 14q174 21 212 141q29 93 29 399q0 272 -19 362q-20 90 -77 131q-53 38 -183 50q-134 12 -438 12zM863 1494l-30 90l513 159l54 -145z" unicode="Ó" glyph-name="Oacute"/>
<glyph horiz-adv-x="2058" d="M1038 1380q480 0 600 -33q192 -54 240 -239q30 -114 30 -425q0 -312 -30 -426q-48 -185 -240 -239q-120 -33 -609 -33t-609 33q-192 54 -240 239q-30 114 -30 425q0 312 30 426q48 185 240 239q120 33 618 33zM1020 1237q-414 0 -520 -27q-89 -22 -128 -83 q-34 -52 -43 -168q-8 -110 -8 -277q0 -271 19 -361q20 -89 77 -131q55 -39 183 -52q104 -10 429 -10q348 0 467 14q174 21 212 141q29 93 29 399q0 272 -19 362q-20 90 -77 131q-53 38 -183 50q-134 12 -438 12zM1029 1742l398 -162l-27 -86l-371 93l-371 -93l-27 86z" unicode="Ô" glyph-name="Ocircumflex"/>
<glyph horiz-adv-x="2058" d="M1038 1380q480 0 600 -33q192 -54 240 -239q30 -114 30 -425q0 -312 -30 -426q-48 -185 -240 -239q-120 -33 -609 -33t-609 33q-192 54 -240 239q-30 114 -30 425q0 312 30 426q48 185 240 239q120 33 618 33zM1020 1237q-414 0 -520 -27q-89 -22 -128 -83 q-34 -52 -43 -168q-8 -110 -8 -277q0 -271 19 -361q20 -89 77 -131q55 -39 183 -52q104 -10 429 -10q348 0 467 14q174 21 212 141q29 93 29 399q0 272 -19 362q-20 90 -77 131q-53 38 -183 50q-134 12 -438 12zM642 1498q5 67 31 113q61 109 192 109q50 0 93 -15 q30 -10 86 -32q102 -41 153 -41q85 0 101 95h130q-5 -67 -30 -113q-61 -109 -192 -109q-51 0 -94 14q-28 10 -85 33q-103 41 -154 41q-85 0 -100 -95h-131z" unicode="Õ" glyph-name="Otilde"/>
<glyph horiz-adv-x="2058" d="M1038 1380q480 0 600 -33q192 -54 240 -239q30 -114 30 -425q0 -312 -30 -426q-48 -185 -240 -239q-120 -33 -609 -33t-609 33q-192 54 -240 239q-30 114 -30 425q0 312 30 426q48 185 240 239q120 33 618 33zM1020 1237q-414 0 -520 -27q-89 -22 -128 -83 q-34 -52 -43 -168q-8 -110 -8 -277q0 -271 19 -361q20 -89 77 -131q55 -39 183 -52q104 -10 429 -10q348 0 467 14q174 21 212 141q29 93 29 399q0 272 -19 362q-20 90 -77 131q-53 38 -183 50q-134 12 -438 12zM635 1526v142h287v-142h-287zM1136 1526v142h287v-142h-287z " unicode="Ö" glyph-name="Odieresis"/>
<glyph horiz-adv-x="1720" d="M861 770l405 405l87 -87l-405 -405l405 -406l-87 -87l-405 406l-406 -406l-87 87l406 406l-406 405l87 87z" unicode="×" glyph-name="multiply"/>
<glyph horiz-adv-x="2058" d="M97 -6v161l96 62q-21 58 -29 123q-14 110 -14 347q0 307 30 421q48 185 240 239q120 33 607 33q490 0 610 -34q94 -26 156 -85l168 110v-161l-96 -62q20 -60 28 -123q14 -109 14 -348q0 -306 -30 -420q-48 -185 -240 -239q-120 -33 -607 -33q-490 0 -609 34 q-94 26 -156 85zM1716 1050l-1308 -853q41 -32 112 -47q65 -15 195 -19q74 -3 327 -3q335 0 453 14q174 21 212 141q29 93 29 401q0 274 -20 366zM342 315l1308 853q-41 32 -113 47q-108 22 -515 22q-416 0 -522 -27q-89 -22 -128 -83q-34 -52 -43 -168q-8 -109 -8 -277 q0 -275 21 -367z" unicode="Ø" glyph-name="Oslash"/>
<glyph horiz-adv-x="1964" d="M1622 1365h164v-927q0 -183 -21 -242q-51 -141 -235 -180q-142 -31 -549 -31q-440 0 -576 38q-174 48 -213 194q-15 55 -15 221v927h164v-898q0 -138 8 -173q28 -117 160 -144q108 -22 472 -22q396 0 496 27q120 33 140 154q5 31 5 158v898zM1154 1494l-537 104l55 145 l512 -159z" unicode="Ù" glyph-name="Ugrave"/>
<glyph horiz-adv-x="1964" d="M1622 1365h164v-927q0 -183 -21 -242q-51 -141 -235 -180q-142 -31 -549 -31q-440 0 -576 38q-174 48 -213 194q-15 55 -15 221v927h164v-898q0 -138 8 -173q28 -117 160 -144q108 -22 472 -22q396 0 496 27q120 33 140 154q5 31 5 158v898zM816 1494l-30 90l513 159 l54 -145z" unicode="Ú" glyph-name="Uacute"/>
<glyph horiz-adv-x="1964" d="M1622 1365h164v-927q0 -183 -21 -242q-51 -141 -235 -180q-142 -31 -549 -31q-440 0 -576 38q-174 48 -213 194q-15 55 -15 221v927h164v-898q0 -138 8 -173q28 -117 160 -144q108 -22 472 -22q396 0 496 27q120 33 140 154q5 31 5 158v898zM982 1742l398 -162l-27 -86 l-371 93l-371 -93l-27 86z" unicode="Û" glyph-name="Ucircumflex"/>
<glyph horiz-adv-x="1964" d="M1622 1365h164v-927q0 -183 -21 -242q-51 -141 -235 -180q-142 -31 -549 -31q-440 0 -576 38q-174 48 -213 194q-15 55 -15 221v927h164v-898q0 -138 8 -173q28 -117 160 -144q108 -22 472 -22q396 0 496 27q120 33 140 154q5 31 5 158v898zM587 1526v142h288v-142h-288z M1088 1526v142h288v-142h-288z" unicode="Ü" glyph-name="Udieresis"/>
<glyph horiz-adv-x="1666" d="M833 709l650 656h224l-792 -791v-574h-164v574l-792 791h224zM695 1494l-30 90l513 159l54 -145z" unicode="Ý" glyph-name="Yacute"/>
<glyph horiz-adv-x="1835" d="M191 0v1365h164v-204h939q173 0 241 -20q120 -36 165 -132q39 -83 39 -251q0 -178 -37 -261q-42 -91 -151 -133q-81 -31 -221 -31h-975v-333h-164zM355 470h853q221 0 290 52q70 53 70 226q0 138 -39 193q-31 44 -98.5 63.5t-189.5 19.5h-886v-554z" unicode="Þ" glyph-name="Thorn"/>
<glyph horiz-adv-x="1530" d="M164 0v947q0 158 19 224q36 126 155 175q74 31 169 38q112 8 271 8q229 0 331 -20q94 -19 139 -73q51 -61 51 -184q0 -117 -55 -170q-39 -38 -130 -61q110 -13 181 -70q58 -45 81 -133q17 -66 17 -221q0 -207 -36 -284q-47 -102 -152 -149q-92 -41 -280 -41 q-182 0 -276 28q-189 58 -189 307q0 19 2 56h146q1 -24 2 -31q3 -108 21 -143q32 -65 109 -81q59 -13 174 -13q216 0 274 76q52 66 52 302q0 133 -27 200q-30 77 -110 106q-64 24 -182 24h-380v130h380q86 0 122 12q63 21 78 73q7 26 7 64q0 65 -14 97q-19 45 -87 59 q-78 17 -284 17q-201 0 -277 -19q-98 -26 -130 -104q-26 -63 -26 -229v-917h-146z" unicode="ß" glyph-name="germandbls"/>
<glyph horiz-adv-x="1466" d="M167 688q3 178 106 237q68 40 195 52q67 6 223 6q265 0 359 -18q149 -29 207 -117q35 -53 41 -129q4 -52 4 -122v-597h-146v131q-31 -75 -92 -106q-47 -23 -132 -32q-69 -7 -224 -7q-269 0 -353 13q-144 24 -198 115q-34 58 -34 175q0 175 84 232q58 40 188 54 q97 10 282 10q296 0 372 -31q74 -31 107 -102v102q0 146 -25 202q-29 65 -113 84q-88 20 -324 20q-200 0 -278 -20q-78 -21 -90 -97q-3 -20 -4 -55h-155zM709 462q-274 0 -351 -29q-85 -31 -85 -149q0 -128 97 -155q59 -17 226 -19q57 -1 114 -1q254 0 331 26 q117 39 117 160q0 92 -80 134q-64 33 -369 33zM890 1111l-431 118l48 136l405 -173z" unicode="à" glyph-name="agrave"/>
<glyph horiz-adv-x="1466" d="M167 688q3 178 106 237q68 40 195 52q67 6 223 6q265 0 359 -18q149 -29 207 -117q35 -53 41 -129q4 -52 4 -122v-597h-146v131q-31 -75 -92 -106q-47 -23 -132 -32q-69 -7 -224 -7q-269 0 -353 13q-144 24 -198 115q-34 58 -34 175q0 175 84 232q58 40 188 54 q97 10 282 10q296 0 372 -31q74 -31 107 -102v102q0 146 -25 202q-29 65 -113 84q-88 20 -324 20q-200 0 -278 -20q-78 -21 -90 -97q-3 -20 -4 -55h-155zM709 462q-274 0 -351 -29q-85 -31 -85 -149q0 -128 97 -155q59 -17 226 -19q57 -1 114 -1q254 0 331 26 q117 39 117 160q0 92 -80 134q-64 33 -369 33zM604 1111l-22 81l405 173l48 -136z" unicode="á" glyph-name="aacute"/>
<glyph horiz-adv-x="1466" d="M167 688q3 178 106 237q68 40 195 52q67 6 223 6q265 0 359 -18q149 -29 207 -117q35 -53 41 -129q4 -52 4 -122v-597h-146v131q-31 -75 -92 -106q-47 -23 -132 -32q-69 -7 -224 -7q-269 0 -353 13q-144 24 -198 115q-34 58 -34 175q0 175 84 232q58 40 188 54 q97 10 282 10q296 0 372 -31q74 -31 107 -102v102q0 146 -25 202q-29 65 -113 84q-88 20 -324 20q-200 0 -278 -20q-78 -21 -90 -97q-3 -20 -4 -55h-155zM709 462q-274 0 -351 -29q-85 -31 -85 -149q0 -128 97 -155q59 -17 226 -19q57 -1 114 -1q254 0 331 26 q117 39 117 160q0 92 -80 134q-64 33 -369 33zM733 1371l333 -186l-20 -81l-313 112l-313 -112l-20 81z" unicode="â" glyph-name="acircumflex"/>
<glyph horiz-adv-x="1466" d="M167 688q3 178 106 237q68 40 195 52q67 6 223 6q265 0 359 -18q149 -29 207 -117q35 -53 41 -129q4 -52 4 -122v-597h-146v131q-31 -75 -92 -106q-47 -23 -132 -32q-69 -7 -224 -7q-269 0 -353 13q-144 24 -198 115q-34 58 -34 175q0 175 84 232q58 40 188 54 q97 10 282 10q296 0 372 -31q74 -31 107 -102v102q0 146 -25 202q-29 65 -113 84q-88 20 -324 20q-200 0 -278 -20q-78 -21 -90 -97q-3 -20 -4 -55h-155zM709 462q-274 0 -351 -29q-85 -31 -85 -149q0 -128 97 -155q59 -17 226 -19q57 -1 114 -1q254 0 331 26 q117 39 117 160q0 92 -80 134q-64 33 -369 33zM945 1315h145q-13 -73 -46 -119q-55 -78 -150 -78q-56 0 -108 21l-95 40q-54 22 -88 22q-62 0 -82 -69h-146q13 72 46 119q56 78 149 78q57 0 109 -21l95 -40q55 -22 88 -22q62 0 83 69z" unicode="ã" glyph-name="atilde"/>
<glyph horiz-adv-x="1466" d="M167 688q3 178 106 237q68 40 195 52q67 6 223 6q265 0 359 -18q149 -29 207 -117q35 -53 41 -129q4 -52 4 -122v-597h-146v131q-31 -75 -92 -106q-47 -23 -132 -32q-69 -7 -224 -7q-269 0 -353 13q-144 24 -198 115q-34 58 -34 175q0 175 84 232q58 40 188 54 q97 10 282 10q296 0 372 -31q74 -31 107 -102v102q0 146 -25 202q-29 65 -113 84q-88 20 -324 20q-200 0 -278 -20q-78 -21 -90 -97q-3 -20 -4 -55h-155zM709 462q-274 0 -351 -29q-85 -31 -85 -149q0 -128 97 -155q59 -17 226 -19q57 -1 114 -1q254 0 331 26 q117 39 117 160q0 92 -80 134q-64 33 -369 33zM351 1149v131h279v-131h-279zM836 1149v131h278v-131h-278z" unicode="ä" glyph-name="adieresis"/>
<glyph horiz-adv-x="1466" d="M167 688q3 178 106 237q68 40 195 52q67 6 223 6q265 0 359 -18q149 -29 207 -117q35 -53 41 -129q4 -52 4 -122v-597h-146v131q-31 -75 -92 -106q-47 -23 -132 -32q-69 -7 -224 -7q-269 0 -353 13q-144 24 -198 115q-34 58 -34 175q0 175 84 232q58 40 188 54 q97 10 282 10q296 0 372 -31q74 -31 107 -102v102q0 146 -25 202q-29 65 -113 84q-88 20 -324 20q-200 0 -278 -20q-78 -21 -90 -97q-3 -20 -4 -55h-155zM709 462q-274 0 -351 -29q-85 -31 -85 -149q0 -128 97 -155q59 -17 226 -19q57 -1 114 -1q254 0 331 26 q117 39 117 160q0 92 -80 134q-64 33 -369 33zM737 1413q135 0 215 -52q56 -36 56 -103q0 -66 -56 -103q-79 -52 -219 -52q-139 0 -218 52q-56 37 -56 103q0 67 56 103q80 52 222 52zM731 1330q-154 0 -154 -72t157 -72q156 0 156 72t-159 72z" unicode="å" glyph-name="aring"/>
<glyph horiz-adv-x="2506" d="M1234 802q39 78 110 120q103 61 423 61q330 0 440 -60q118 -65 153 -222q17 -80 16 -244h-1074q1 -108 8 -147q24 -135 145 -176q74 -25 319 -25q222 0 302 22q105 28 134 99q9 23 14 60h149q-9 -124 -80 -194q-72 -70 -207 -91q-124 -19 -317 -19q-339 0 -442 71 q-50 34 -87 97q-39 -69 -109 -113q-55 -34 -155 -46q-83 -9 -269 -9q-268 0 -352 13q-144 24 -198 115q-34 58 -34 174q0 176 84 233q58 40 188 54q97 10 282 10q296 0 372 -31q74 -31 107 -101v101q0 146 -25 202q-29 65 -113 84q-88 20 -324 20q-200 0 -278 -20 q-78 -21 -90 -97q-3 -20 -4 -55h-155q3 178 106 237q68 40 195 52q67 6 225 6q244 0 331 -18q162 -35 210 -163zM709 462q-274 0 -351 -29q-85 -31 -85 -149q0 -128 97 -155q60 -17 226 -19q57 -1 114 -1q254 0 331 26q117 39 117 160q0 92 -80 134q-63 33 -369 33z M2222 576q-1 103 -29 156q-44 86 -153 111q-71 17 -277 17q-230 0 -304 -24q-112 -35 -143 -141q-11 -40 -14 -119h920z" unicode="æ" glyph-name="ae"/>
<glyph horiz-adv-x="1461" d="M1352 353q-5 -79 -12 -112q-35 -148 -161 -204q-116 -51 -438 -51q-282 0 -405 43q-99 35 -146 135q-53 110 -53 320q0 211 53 321q47 99 146 134q123 44 404 44q340 0 448 -60q122 -69 144 -222q2 -15 5 -72h-159v17q0 91 -53 142q-46 44 -132 59q-76 13 -268 13 q-215 0 -283 -23q-105 -36 -134 -153q-18 -73 -18 -200q0 -233 71 -304q46 -46 129 -60q68 -11 255 -11q237 0 308 25q115 41 134 144q5 28 6 75h159zM550 -351l-55 87l304 175l73 -123z" unicode="ç" glyph-name="ccedilla"/>
<glyph horiz-adv-x="1493" d="M290 457q1 -108 8 -147q24 -135 145 -176q74 -25 319 -25q221 0 301 22q106 28 135 99q9 23 14 60h149q-9 -124 -80 -194q-72 -70 -208 -91q-123 -19 -320 -19q-277 0 -407 43q-103 35 -154 135q-55 109 -55 320t55 321q51 100 154 134q130 44 405 44q334 0 444 -60 q118 -65 152 -222q18 -80 17 -244h-1074zM1210 576q-1 103 -29 156q-45 86 -153 111q-71 17 -277 17q-230 0 -304 -24q-112 -35 -143 -141q-11 -40 -14 -119h920zM904 1111l-431 118l48 136l405 -173z" unicode="è" glyph-name="egrave"/>
<glyph horiz-adv-x="1493" d="M290 457q1 -108 8 -147q24 -135 145 -176q74 -25 319 -25q221 0 301 22q106 28 135 99q9 23 14 60h149q-9 -124 -80 -194q-72 -70 -208 -91q-123 -19 -320 -19q-277 0 -407 43q-103 35 -154 135q-55 109 -55 320t55 321q51 100 154 134q130 44 405 44q334 0 444 -60 q118 -65 152 -222q18 -80 17 -244h-1074zM1210 576q-1 103 -29 156q-45 86 -153 111q-71 17 -277 17q-230 0 -304 -24q-112 -35 -143 -141q-11 -40 -14 -119h920zM625 1111l-22 81l405 173l48 -136z" unicode="é" glyph-name="eacute"/>
<glyph horiz-adv-x="1493" d="M290 457q1 -108 8 -147q24 -135 145 -176q74 -25 319 -25q221 0 301 22q106 28 135 99q9 23 14 60h149q-9 -124 -80 -194q-72 -70 -208 -91q-123 -19 -320 -19q-277 0 -407 43q-103 35 -154 135q-55 109 -55 320t55 321q51 100 154 134q130 44 405 44q334 0 444 -60 q118 -65 152 -222q18 -80 17 -244h-1074zM1210 576q-1 103 -29 156q-45 86 -153 111q-71 17 -277 17q-230 0 -304 -24q-112 -35 -143 -141q-11 -40 -14 -119h920zM751 1371l333 -186l-20 -81l-313 112l-313 -112l-20 81z" unicode="ê" glyph-name="ecircumflex"/>
<glyph horiz-adv-x="1493" d="M290 457q1 -108 8 -147q24 -135 145 -176q74 -25 319 -25q221 0 301 22q106 28 135 99q9 23 14 60h149q-9 -124 -80 -194q-72 -70 -208 -91q-123 -19 -320 -19q-277 0 -407 43q-103 35 -154 135q-55 109 -55 320t55 321q51 100 154 134q130 44 405 44q334 0 444 -60 q118 -65 152 -222q18 -80 17 -244h-1074zM1210 576q-1 103 -29 156q-45 86 -153 111q-71 17 -277 17q-230 0 -304 -24q-112 -35 -143 -141q-11 -40 -14 -119h920zM372 1149v131h279v-131h-279zM857 1149v131h278v-131h-278z" unicode="ë" glyph-name="edieresis"/>
<glyph horiz-adv-x="474" d="M164 0v969h146v-969h-146zM347 1111l-357 122l50 132l335 -173z" unicode="ì" glyph-name="igrave"/>
<glyph horiz-adv-x="474" d="M164 0v969h146v-969h-146zM131 1111l-25 81l334 173l51 -132z" unicode="í" glyph-name="iacute"/>
<glyph horiz-adv-x="474" d="M164 0v969h146v-969h-146zM237 1371l279 -186l-27 -81l-252 112l-251 -112l-27 81z" unicode="î" glyph-name="icircumflex"/>
<glyph horiz-adv-x="473" d="M164 0v969h146v-969h-146zM-35 1149v131h224v-131h-224zM284 1149v131h224v-131h-224z" unicode="ï" glyph-name="idieresis"/>
<glyph horiz-adv-x="1533" d="M842 1184l-151 -114l-72 88l137 103q-50 50 -170 148l94 92q80 -61 187 -160l160 119l75 -82l-153 -117q158 -148 280 -310q80 -104 121 -215q47 -123 47 -276q0 -275 -119 -378q-68 -58 -198 -79q-111 -17 -313 -17q-293 0 -422 44q-103 34 -153 134q-55 109 -55 320 t55 321q51 100 153 134q134 44 379 44q227 0 350 -49q-78 90 -232 250zM745 860q-206 0 -293 -25q-60 -16 -93 -51.5t-50 -99.5q-19 -73 -19 -199q0 -235 76 -306q45 -42 136 -56q88 -14 265 -14q230 0 315 25q80 23 115 80q47 78 47 254q0 217 -96 308q-47 45 -141 64.5 t-262 19.5z" unicode="ð" glyph-name="eth"/>
<glyph horiz-adv-x="1493" d="M164 0v969h146v-192q39 109 116 157q59 36 156 50q84 12 243 12q156 0 237 -16q176 -36 233 -156q34 -72 34 -214v-610h-146v603q0 139 -54 188q-53 47 -170 61q-64 7 -172 7q-197 0 -305 -36q-172 -58 -172 -254v-569h-146zM959 1315h145q-13 -73 -46 -119 q-55 -78 -150 -78q-56 0 -108 21l-95 40q-54 22 -88 22q-62 0 -82 -69h-146q13 72 46 119q56 78 149 78q57 0 109 -21l95 -40q55 -22 88 -22q62 0 83 69z" unicode="ñ" glyph-name="ntilde"/>
<glyph horiz-adv-x="1533" d="M774 983q286 0 415 -44q103 -34 153 -134q55 -110 55 -320q0 -211 -55 -321q-50 -99 -153 -134q-130 -44 -422 -44t-422 44q-103 34 -153 134q-55 109 -55 320q0 212 55 321q51 100 153 134q130 44 429 44zM760 860q-222 0 -308 -25q-60 -17 -93 -52t-50 -99 q-19 -73 -19 -199q0 -235 76 -306q45 -42 136 -56q88 -14 265 -14q230 0 315 25q60 17 93 52t50 99q19 73 19 200q0 234 -76 305q-44 42 -136 56q-89 14 -272 14zM903 1111l-431 118l48 136l405 -173z" unicode="ò" glyph-name="ograve"/>
<glyph horiz-adv-x="1533" d="M774 983q286 0 415 -44q103 -34 153 -134q55 -110 55 -320q0 -211 -55 -321q-50 -99 -153 -134q-130 -44 -422 -44t-422 44q-103 34 -153 134q-55 109 -55 320q0 212 55 321q51 100 153 134q130 44 429 44zM760 860q-222 0 -308 -25q-60 -17 -93 -52t-50 -99 q-19 -73 -19 -199q0 -235 76 -306q45 -42 136 -56q88 -14 265 -14q230 0 315 25q60 17 93 52t50 99q19 73 19 200q0 234 -76 305q-44 42 -136 56q-89 14 -272 14zM644 1111l-22 81l405 173l48 -136z" unicode="ó" glyph-name="oacute"/>
<glyph horiz-adv-x="1533" d="M774 983q286 0 415 -44q103 -34 153 -134q55 -110 55 -320q0 -211 -55 -321q-50 -99 -153 -134q-130 -44 -422 -44t-422 44q-103 34 -153 134q-55 109 -55 320q0 212 55 321q51 100 153 134q130 44 429 44zM760 860q-222 0 -308 -25q-60 -17 -93 -52t-50 -99 q-19 -73 -19 -199q0 -235 76 -306q45 -42 136 -56q88 -14 265 -14q230 0 315 25q60 17 93 52t50 99q19 73 19 200q0 234 -76 305q-44 42 -136 56q-89 14 -272 14zM767 1371l333 -186l-20 -81l-313 112l-313 -112l-20 81z" unicode="ô" glyph-name="ocircumflex"/>
<glyph horiz-adv-x="1533" d="M774 983q286 0 415 -44q103 -34 153 -134q55 -110 55 -320q0 -211 -55 -321q-50 -99 -153 -134q-130 -44 -422 -44t-422 44q-103 34 -153 134q-55 109 -55 320q0 212 55 321q51 100 153 134q130 44 429 44zM760 860q-222 0 -308 -25q-60 -17 -93 -52t-50 -99 q-19 -73 -19 -199q0 -235 76 -306q45 -42 136 -56q88 -14 265 -14q230 0 315 25q60 17 93 52t50 99q19 73 19 200q0 234 -76 305q-44 42 -136 56q-89 14 -272 14zM986 1315h145q-13 -73 -46 -119q-55 -78 -150 -78q-56 0 -108 21l-95 40q-54 22 -88 22q-62 0 -82 -69h-146 q13 72 46 119q56 78 149 78q57 0 109 -21l95 -40q55 -22 88 -22q62 0 83 69z" unicode="õ" glyph-name="otilde"/>
<glyph horiz-adv-x="1533" d="M774 983q286 0 415 -44q103 -34 153 -134q55 -110 55 -320q0 -211 -55 -321q-50 -99 -153 -134q-130 -44 -422 -44t-422 44q-103 34 -153 134q-55 109 -55 320q0 212 55 321q51 100 153 134q130 44 429 44zM760 860q-222 0 -308 -25q-60 -17 -93 -52t-50 -99 q-19 -73 -19 -199q0 -235 76 -306q45 -42 136 -56q88 -14 265 -14q230 0 315 25q60 17 93 52t50 99q19 73 19 200q0 234 -76 305q-44 42 -136 56q-89 14 -272 14zM385 1149v131h279v-131h-279zM870 1149v131h278v-131h-278z" unicode="ö" glyph-name="odieresis"/>
<glyph horiz-adv-x="1720" d="M216 758h1289v-117h-1289v117zM758 1138h205v-222h-205v222zM756 483h205v-222h-205v222z" unicode="÷" glyph-name="divide"/>
<glyph horiz-adv-x="1533" d="M187 172q-51 112 -51 313q0 211 55 320q50 100 153 134q129 44 423 44q288 0 421 -44q52 -17 98 -62l158 102v-125l-97 -63q49 -111 49 -306q0 -212 -55 -321q-50 -99 -153 -134q-130 -44 -424 -44q-286 0 -419 44q-47 15 -95 57l-151 -97v126zM318 256l842 541 q-47 33 -104 45q-86 18 -286 18q-234 0 -319 -24q-60 -18 -93 -53t-50 -98q-19 -73 -19 -205q0 -140 29 -224zM1216 708l-839 -539q44 -30 99 -41q86 -19 284 -19q236 0 322 25q59 17 92 52t50 98q19 73 19 203q0 135 -27 221z" unicode="ø" glyph-name="oslash"/>
<glyph horiz-adv-x="1493" d="M1329 969v-969h-146v192q-39 -109 -117 -157q-58 -36 -155 -50q-84 -12 -243 -12q-157 0 -237 16q-176 36 -233 156q-34 72 -34 214v610h146v-603q0 -139 54 -188q53 -47 170 -61q64 -7 172 -7q198 0 305 36q172 58 172 254v569h146zM883 1111l-431 118l48 136l405 -173z " unicode="ù" glyph-name="ugrave"/>
<glyph horiz-adv-x="1493" d="M1329 969v-969h-146v192q-39 -109 -117 -157q-58 -36 -155 -50q-84 -12 -243 -12q-157 0 -237 16q-176 36 -233 156q-34 72 -34 214v610h146v-603q0 -139 54 -188q53 -47 170 -61q64 -7 172 -7q198 0 305 36q172 58 172 254v569h146zM624 1111l-22 81l405 173l48 -136z " unicode="ú" glyph-name="uacute"/>
<glyph horiz-adv-x="1493" d="M1329 969v-969h-146v192q-39 -109 -117 -157q-58 -36 -155 -50q-84 -12 -243 -12q-157 0 -237 16q-176 36 -233 156q-34 72 -34 214v610h146v-603q0 -139 54 -188q53 -47 170 -61q64 -7 172 -7q198 0 305 36q172 58 172 254v569h146zM747 1371l333 -186l-20 -81l-313 112 l-313 -112l-20 81z" unicode="û" glyph-name="ucircumflex"/>
<glyph horiz-adv-x="1493" d="M1329 969v-969h-146v192q-39 -109 -117 -157q-58 -36 -155 -50q-84 -12 -243 -12q-157 0 -237 16q-176 36 -233 156q-34 72 -34 214v610h146v-603q0 -139 54 -188q53 -47 170 -61q64 -7 172 -7q198 0 305 36q172 58 172 254v569h146zM365 1149v131h279v-131h-279z M850 1149v131h278v-131h-278z" unicode="ü" glyph-name="udieresis"/>
<glyph horiz-adv-x="1162" d="M-34 969h160l482 -873l434 873h154l-522 -1047q-89 -178 -134 -241q-109 -149 -341 -149q-21 0 -61 2v121q31 -1 48 -1q132 0 203 63q51 46 132 205l39 78h-55zM472 1111l-22 81l405 173l48 -136z" unicode="ý" glyph-name="yacute"/>
<glyph horiz-adv-x="1552" d="M164 1379h146v-553q29 58 85 95q93 62 400 62q283 0 413 -44q103 -34 153 -134q55 -109 55 -321q0 -211 -55 -320q-50 -100 -153 -134q-131 -44 -413 -44q-205 0 -306 24q-128 31 -179 134v-554h-146v1789zM779 860q-222 0 -309 -25q-59 -17 -92 -52t-50 -99 q-19 -73 -19 -199q0 -235 76 -306q45 -42 136 -56q88 -14 265 -14q230 0 315 25q60 17 93 52t50 99q19 73 19 200q0 234 -76 305q-45 42 -136 56q-88 14 -272 14z" unicode="þ" glyph-name="thorn"/>
<glyph horiz-adv-x="474" d="M164 0v969h146v-969h-146z" unicode="ı" glyph-name="dotlessi"/>
<glyph d="M512 1371l333 -186l-20 -81l-313 112l-313 -112l-20 81z" unicode="ˆ" glyph-name="circumflex"/>
<glyph d="M516 1413q135 0 215 -52q56 -36 56 -103q0 -66 -56 -103q-79 -52 -219 -52q-139 0 -218 52q-56 37 -56 103q0 67 56 103q80 52 222 52zM510 1330q-154 0 -154 -72t157 -72q156 0 156 72t-159 72z" unicode="˚" glyph-name="ring"/>
<glyph d="M724 1315h145q-13 -73 -46 -119q-55 -78 -150 -78q-56 0 -108 21l-95 40q-54 22 -88 22q-62 0 -82 -69h-146q13 72 46 119q56 78 149 78q57 0 109 -21l95 -40q55 -22 88 -22q62 0 83 69z" unicode="˜" glyph-name="tilde"/>
<glyph d="M118 1526v142h288v-142h-288zM619 1526v142h288v-142h-288z" unicode="" glyph-name="uniEA11"/>
<glyph d="M517 1781q121 0 202 -42q79 -41 79 -115q0 -73 -79 -114q-81 -42 -206 -42q-126 0 -206 42q-36 19 -58.5 50.5t-22.5 63.5q0 33 22.5 64.5t58.5 50.5q81 42 210 42zM510 1697q-65 0 -115 -17q-51 -18 -51 -56q0 -37 51 -55q49 -17 117 -17t117 17q51 18 51 55 q0 38 -51 56q-50 17 -119 17z" unicode="" glyph-name="uniEA13"/>
<glyph d="M346 1494l-30 90l513 159l54 -145z" unicode="" glyph-name="uniEA14"/>
<glyph d="M677 1494l-537 104l55 145l512 -159z" unicode="" glyph-name="uniEA15"/>
<glyph d="M512 1742l398 -162l-27 -86l-371 93l-371 -93l-27 86z" unicode="" glyph-name="uniEA16"/>
<glyph d="M119 1498q5 67 31 113q61 109 192 109q50 0 93 -15q30 -10 86 -32q102 -41 153 -41q85 0 101 95h130q-5 -67 -30 -113q-61 -109 -192 -109q-51 0 -94 14q-28 10 -85 33q-103 41 -154 41q-85 0 -100 -95h-131z" unicode="" glyph-name="uniEA19"/>
<glyph d="M344 -364l-55 93l311 175l73 -123z" unicode="" glyph-name="uniEA1B"/>
<glyph d="M224 1526v142h240v-142h-240zM559 1526v142h240v-142h-240z" unicode="" glyph-name="uniEA68"/>
<glyph d="M240 1149v131h224v-131h-224zM559 1149v131h224v-131h-224z" unicode="" glyph-name="uniEA6A"/>
</font>
</defs>
</svg>
